<svg xmlns="http://www.w3.org/2000/svg" width="525" height="437" viewBox="0 0 524.9 436.9"><style>.a{fill:#575756;}.b{fill:#9D9D9C;}.c{fill:#3AAA35;}.d{fill:#F9B233;}.e{fill:#36A9E1;}</style><path d="M205.4 43.9C92.9 48.8 9 68.2 9 91.3c0 7.5 8.8 14.6 24.4 20.9 12.8-24.3 93.5-43.6 195.9-47C232 65.1 208.1 43.7 205.4 43.9z" class="a"/><path d="M319 43.9c112.5 5 196.4 24.3 196.4 47.5 0 7.5-8.8 14.6-24.4 20.9 -12.9-24.3-93.6-43.6-196-47C292.4 65.1 316.3 43.7 319 43.9z" class="a"/><polygon points="110.6 12 124.2 0 124.2 33 110.6 40.4 " fill="#FFF"/><path d="M262.2 140c-127.1 0-232.3-18-250.5-41.5l24.2 31c20.7 25 114.2 43.9 226.3 43.9V140z" class="b"/><path d="M262.2 140c127.1 0 232.3-18 250.4-41.5l-24.2 31c-20.7 25-114.1 43.9-226.3 43.9V140z" class="b"/><path d="M400.3 0l13.5 40.4c-61.5 0-104.1 140.8-104.1 292.7h-18.6C291.1 153.7 358.8 0 400.3 0z" fill="#006F38"/><polygon points="413.8 12 400.3 0 400.3 33 413.8 40.4 " fill="#008D36"/><path d="M400.3 33c-40.5 0-95 120.7-95 300.1h-14.1C291.1 142.5 326.7 0 400.3 0V33z" class="c"/><path d="M124.2 0l-13.5 40.4c61.5 0 104.1 140.8 104.1 292.7h18.6C233.3 153.7 165.6 0 124.2 0z" fill="#EF7D00"/><polygon points="110.6 12 124.2 0 124.2 33 110.6 40.4 " fill="#F39200"/><path d="M124.2 33c40.4 0 95 120.7 95 300.1h14.1C233.3 142.5 197.7 0 124.2 0V33z" class="d"/><polygon points="240.9 8.2 252 333.1 273.6 333.1 249.6 0 " fill="#1D71B8"/><polygon points="280.2 0 273.6 333.1 256.2 333.1 249.6 0 " class="e"/><path d="M39.6 403.3h9.5v17.7h8v8.4H39.6V403.3z"/><path d="M66.2 411.1l2.2 7.5c0.2 0.7 0.3 1.2 0.4 2.4h0.2c0.1-1.2 0.2-1.8 0.4-2.4l2.1-7.5h9.4l-11.8 25.8h-9.4l4.8-9.4 -7.9-16.4H66.2z"/><path d="M95.6 428.9c-1.7 0.7-2.8 0.9-4.7 0.9 -6.1 0-10.1-3.8-10.1-9.6 0-5.5 4.1-9.6 9.5-9.6 1.8 0 3.9 0.4 5.6 0.9v7.4c-1.4-1.1-2.1-1.4-3.4-1.4 -1.5 0-2.6 1.1-2.6 2.7 0 1.4 1.2 2.7 2.6 2.7 1.3 0 2.2-0.4 3.6-1.4L95.6 428.9z"/><path d="M119.6 423.3c-1.4 4.1-5.3 6.6-10.6 6.6 -6.4 0-10.8-3.9-10.8-9.4 0-5.9 4.4-9.9 10.8-9.9 3.9 0 6.9 1.3 8.8 3.9 1.4 1.8 2.1 4.1 2.1 6.4v0.8h-12.9c0 2.2 0.6 3.1 2 3.1 1 0 1.6-0.4 1.9-1.5H119.6zM115.5 403.2l-5.7 5 -3.4-2.1 4.5-5.7L115.5 403.2zM111.3 417.9c-0.2-1.5-0.9-2.3-2.2-2.3 -1.2 0-1.9 0.8-2 2.3H111.3z"/><path d="M143.5 423.3c-1.4 4.1-5.3 6.6-10.6 6.6 -6.4 0-10.8-3.9-10.8-9.4 0-5.9 4.4-9.9 10.8-9.9 3.9 0 6.9 1.3 8.8 3.9 1.4 1.8 2.1 4.1 2.1 6.4v0.8h-12.9c0 2.2 0.6 3.1 2 3.1 1 0 1.6-0.4 1.9-1.5H143.5zM135.2 417.9c-0.2-1.5-0.9-2.3-2.2-2.3 -1.2 0-1.9 0.8-2 2.3H135.2z"/><path d="M177.8 400.9v28.5h-8.6c0-0.4 0-0.6 0-0.8 0-0.6 0.1-1.1 0.3-2.1l-0.3 0c-1.3 2.3-3.3 3.4-5.9 3.4 -4.2 0-7.4-4.2-7.4-9.6 0-5.4 3.3-9.6 7.5-9.6 2.3 0 3.9 0.9 5.6 2.9h0.3c-0.3-1.4-0.4-2-0.4-2.7v-10H177.8zM164.5 420c0 1.6 1.1 2.9 2.4 2.9s2.3-1.1 2.3-2.7c0-1.7-1-2.9-2.4-2.9C165.5 417.2 164.5 418.4 164.5 420z"/><path d="M202.1 423.3c-1.4 4.1-5.3 6.6-10.6 6.6 -6.4 0-10.8-3.9-10.8-9.4 0-5.9 4.4-9.9 10.8-9.9 3.9 0 6.9 1.3 8.8 3.9 1.4 1.8 2.1 4.1 2.1 6.4v0.8h-12.9c0 2.2 0.6 3.1 2 3.1 1 0 1.6-0.4 1.9-1.5H202.1zM193.8 417.9c-0.2-1.5-0.9-2.3-2.2-2.3 -1.2 0-1.9 0.8-2 2.3H193.8z"/><path d="M206.8 422.3l1.2 0.8c0.9 0.6 2.9 1.3 3.8 1.3 0.8 0 1.4-0.4 1.4-1.1 0-0.5-0.4-0.9-0.9-1l-2-0.3c-2.8-0.4-4.6-2.4-4.6-5 0-3.7 3.5-6.4 8.6-6.4 2.7 0 5 0.5 7.1 1.6l-2.1 5.1c-1.6-1.1-2.9-1.6-4.1-1.6 -0.8 0-1.3 0.4-1.3 1 0 0.5 0.3 0.7 1.3 0.9l1.8 0.4c3.3 0.7 4.9 2.3 4.9 5.2 0 4-3.6 6.8-8.9 6.8 -2.6 0-4.8-0.5-8.4-2L206.8 422.3z"/><path d="M238.2 403.3h9.7l3 10.7c0.2 0.7 0.4 1.4 0.6 3h0.2c0.1-1.4 0.2-2 0.5-3l3-10.7h9.6l4.3 26.1h-9.1l-1.2-11.7c-0.1-0.9-0.1-1.4-0.2-2.6h-0.2c-0.3 1.4-0.4 1.8-0.5 2.2l-3.9 12.1h-5.5l-3.5-11.4c-0.2-0.7-0.4-1.3-0.5-2.8h-0.3c0 1.3 0 1.6 0 2l-1.3 12.2h-9.2L238.2 403.3z"/><path d="M293.3 423.3c-1.4 4.1-5.3 6.6-10.6 6.6 -6.4 0-10.8-3.9-10.8-9.4 0-5.9 4.4-9.9 10.8-9.9 3.9 0 6.9 1.3 8.8 3.9 1.4 1.8 2.1 4.1 2.1 6.4v0.8h-12.9c0 2.2 0.6 3.1 2 3.1 1 0 1.6-0.4 1.9-1.5H293.3zM289.1 403.2l-5.7 5 -3.4-2.1 4.5-5.7L289.1 403.2zM285 417.9c-0.2-1.5-0.9-2.3-2.2-2.3 -1.2 0-1.9 0.8-2 2.3H285z"/><path d="M297.3 418l-2.2 0.2v-7l2.2 0.2v-6.6h8.9v6.6l3-0.2v7l-3-0.2v11.4h-8.9V418z"/><path d="M320.2 405.4c0 2.6-1.9 4.3-4.7 4.3 -3.1 0-5.1-1.6-5.1-4.3 0-2.6 2-4.3 4.8-4.3C318.2 401.1 320.2 402.9 320.2 405.4zM310.9 411.1h8.9v18.2h-8.9V411.1z"/><path d="M344.2 423.3c-1.4 4.1-5.3 6.6-10.6 6.6 -6.4 0-10.8-3.9-10.8-9.4 0-5.9 4.4-9.9 10.8-9.9 3.9 0 6.9 1.3 8.8 3.9 1.4 1.8 2.1 4.1 2.1 6.4v0.8H331.6c0 2.2 0.6 3.1 2 3.1 1 0 1.6-0.4 1.9-1.5H344.2zM335.9 417.9c-0.2-1.5-0.9-2.3-2.2-2.3 -1.2 0-1.9 0.8-2 2.3H335.9z"/><path d="M347.5 411.1h8.9l-0.1 1.3c0 0 0 0.2-0.1 0.5 0 0.1 0 0.3-0.1 0.6h0.2c1.8-2.6 2.9-3.1 6.3-3.1v9.3c-1.4-0.9-1.9-1-2.8-1 -2 0-3.5 1.4-3.5 3.2v7.5h-8.9V411.1z"/><path d="M366.1 422.3l1.2 0.8c0.9 0.6 2.9 1.3 3.8 1.3 0.8 0 1.4-0.4 1.4-1.1 0-0.5-0.4-0.9-0.9-1l-2-0.3c-2.8-0.4-4.6-2.4-4.6-5 0-3.7 3.5-6.4 8.6-6.4 2.7 0 5 0.5 7.1 1.6l-2.1 5.1c-1.6-1.1-2.9-1.6-4.1-1.6 -0.8 0-1.3 0.4-1.3 1 0 0.5 0.3 0.7 1.3 0.9l1.8 0.4c3.3 0.7 4.9 2.3 4.9 5.2 0 4-3.6 6.8-8.9 6.8 -2.6 0-4.8-0.5-8.4-2L366.1 422.3z"/><path d="M391.6 416.4h12.3v7.1h-12.3V416.4z"/><path d="M435.1 428.7c-1.4 0.6-4.3 1.1-6.7 1.1 -7.5 0-13.3-5.8-13.3-13.2 0-7.7 5.9-13.6 13.6-13.6 2.2 0 4.5 0.4 6.4 1l0.3 9.9c-2.1-1.8-3.7-2.6-5.5-2.6 -2.9 0-5.2 2.2-5.2 5s2.3 5.1 5.2 5.1c2 0 3.5-0.7 5.4-2.4L435.1 428.7z"/><path d="M439.4 403.3h17.4v7.4h-7.9v2.7h7v6.8h-7v9.1h-9.5V403.3z"/><path d="M467.4 429.4h-10l9-26.1h10.5l9.3 26.1h-10l-0.9-3.2h-7.2L467.4 429.4zM473.6 420l-1.2-5c-0.4-1.6-0.4-1.7-0.5-2.9h-0.4c-0.2 1.6-0.3 2.3-0.4 2.9l-1.3 5H473.6z"/><path d="M0 350.8h13.7v13.2h8.7v-13.2h13.7v39.1H22.4v-13.6h-8.7v13.6H0V350.8z" class="c"/><path d="M42.4 350.8h26.4v10.7H56.6v3.6h11v10.3H56.6v3.8h12.5v10.7H42.4V350.8z" class="c"/><path d="M73.7 350.8h14.2v39.1H73.7V350.8z" class="c"/><path d="M94.3 350.8h13.6l9 14.7c1.9 3.2 2.3 3.9 3.7 7h0.4c-0.8-3.9-0.9-4.8-1-9.3l-0.2-12.4h13.6v39.1h-13.6l-9.7-15.4c-1.1-1.6-1.6-2.8-2.7-5.1h-0.4c0.6 3.6 0.8 5.3 0.8 7.2l0.2 13.3H94.3V350.8z" class="c"/><path d="M139.8 350.8h17.6c4.2 0 6.8 0.6 9.4 2.2 4.2 2.6 6.3 6.3 6.3 11.3 0 3-0.9 5.8-2.5 7.6 -1 1.2-2.4 1.9-5.1 2.7v0.4c1.1 0.7 1.6 1.1 2.1 1.8l8.8 13.2h-16.3l-5.6-11.4c-0.3-0.6-0.4-0.7-0.5-1.2l-0.2 0.1v12.5h-13.8V350.8zM155.5 368.2c2.3 0 3.8-1.3 3.8-3.3s-1.3-3.4-3.2-3.4h-2.5v6.7H155.5z" class="c"/><path d="M180 350.8h14.2v39.1h-14.2V350.8z" class="c"/><path d="M228.7 388.9c-2.2 0.9-6.4 1.6-10 1.6 -11.2 0-19.9-8.7-19.9-19.8 0-11.5 8.9-20.4 20.4-20.4 3.3 0 6.8 0.5 9.6 1.5l0.4 14.9c-3.2-2.8-5.6-3.9-8.3-3.9 -4.3 0-7.7 3.3-7.7 7.6s3.5 7.7 7.9 7.7c3 0 5.2-1 8.1-3.6L228.7 388.9z" class="c"/><path d="M235.3 350.8h13.7v13.2h8.7v-13.2h13.7v39.1h-13.7v-13.6h-8.7v13.6H235.3V350.8z" class="c"/><path d="M287 370.5h18.5v10.6h-18.5V370.5z" class="d"/><path d="M321.1 350.8h13.6l9 14.7c1.9 3.2 2.3 3.9 3.7 7h0.4c-0.8-3.9-0.9-4.8-1-9.3l-0.2-12.4h13.6v39.1h-13.6l-9.7-15.4c-1.1-1.6-1.6-2.8-2.7-5.1h-0.4c0.6 3.6 0.8 5.3 0.8 7.2l0.2 13.3h-13.6V350.8z" class="e"/><path d="M366.5 350.8h26.4v10.7h-12.1v3.6h11v10.3h-11v3.8h12.5v10.7h-26.8V350.8z" class="e"/><path d="M400.5 375.8l1.5 1.2c2.3 1.8 5.6 2.9 8.2 2.9 2.1 0 3.5-0.9 3.5-2.3 0-1.1-0.8-1.8-2.6-2.1l-4.1-0.8c-5.9-1.1-9.6-5-9.6-10.4 0-8.2 7.2-14.2 17.2-14.2 4.3 0 7.9 1 12 3.3l-3.8 10c-3.2-2.2-5.5-3-8.2-3 -1.9 0-3.1 0.8-3.1 2.1 0 0.9 0.7 1.5 2.2 1.8l4.6 0.9c6.3 1.4 9.7 5.3 9.7 11.1 0 8.1-7 13.9-16.9 13.9 -5 0-10.1-1.2-15-3.6L400.5 375.8z" class="e"/><path d="M435.2 375.8l1.5 1.2c2.3 1.8 5.6 2.9 8.2 2.9 2.1 0 3.5-0.9 3.5-2.3 0-1.1-0.8-1.8-2.6-2.1l-4.1-0.8c-5.9-1.1-9.6-5-9.6-10.4 0-8.2 7.2-14.2 17.2-14.2 4.3 0 7.9 1 12 3.3l-3.8 10c-3.2-2.2-5.5-3-8.2-3 -1.9 0-3.1 0.8-3.1 2.1 0 0.9 0.7 1.5 2.2 1.8l4.6 0.9c6.3 1.4 9.7 5.3 9.7 11.1 0 8.1-7 13.9-16.9 13.9 -5 0-10.1-1.2-15-3.6L435.2 375.8z" class="e"/><path d="M467.4 350.8h26.4v10.7h-12.1v3.6h11v10.3h-11v3.8h12.5v10.7h-26.8V350.8z" class="e"/><path d="M498.7 350.8h14.2v26.5h12v12.6h-26.2V350.8z" class="e"/></svg>